<svg id="Filled" height="512" viewBox="0 0 512 512" width="512" xmlns="http://www.w3.org/2000/svg" xmlns:xlink="http://www.w3.org/1999/xlink"><linearGradient id="linear-gradient" gradientUnits="userSpaceOnUse" x1="256" x2="256" y1="488" y2="24"><stop offset="0" stop-color="#ffc70d"/><stop offset="1" stop-color="#e42e3d"/></linearGradient><path d="m488 304c0 128.13-103.87 184-232 184s-232-55.87-232-184 103.87-280 232-280 232 151.87 232 280z" fill="url(#linear-gradient)"/><path d="m256 456c-122.746 0-223.161-51.321-231.389-168.276-.361 5.455-.611 10.892-.611 16.276 0 128.13 103.87 184 232 184s232-55.87 232-184c0-5.384-.25-10.821-.611-16.276-8.228 116.955-108.643 168.276-231.389 168.276z" fill="#f89f00"/><g fill="#fff"><path d="m153.583 175.652a23.741 23.741 0 0 0 -1.583 8.348 23.992 23.992 0 0 0 46.053 9.44z"/><path d="m313.947 193.44a23.992 23.992 0 0 0 46.053-9.44 23.741 23.741 0 0 0 -1.582-8.348z"/><circle cx="176" cy="184" r="8"/><circle cx="336" cy="184" r="8"/><path d="m256 216a63.863 63.863 0 0 0 -16 2.1v61.9h32v-61.9a63.863 63.863 0 0 0 -16-2.1z"/><path d="m288 224.632v55.368h32a63.922 63.922 0 0 0 -32-55.368z"/><path d="m192 280h32v-55.368a63.922 63.922 0 0 0 -32 55.368z"/></g><path d="m373.029 152.572-80 32a8 8 0 1 0 5.942 14.856l14.967-5.987a24 24 0 0 0 46.062-9.441 23.632 23.632 0 0 0 -1.54-8.368l20.511-8.2a8 8 0 0 0 -5.942-14.856zm-29.029 31.428a7.993 7.993 0 0 1 -15.187 3.491l14.787-5.915a7.582 7.582 0 0 1 .4 2.424z"/><path d="m198.062 193.441 14.967 5.987a8 8 0 1 0 5.942-14.856l-80-32a8 8 0 1 0 -5.942 14.856l20.511 8.2a23.632 23.632 0 0 0 -1.54 8.372 24 24 0 0 0 46.062 9.441zm-22.062-1.441a8.009 8.009 0 0 1 -8-8 7.582 7.582 0 0 1 .4-2.424l14.787 5.915a8 8 0 0 1 -7.187 4.509z"/><path d="m256 208a72.081 72.081 0 0 0 -72 72 8 8 0 0 0 8 8h128a8 8 0 0 0 8-8 72.081 72.081 0 0 0 -72-72zm16 18.341v45.659h-32v-45.659a55.848 55.848 0 0 1 32 0zm-48 7.742v37.917h-23.43a56.056 56.056 0 0 1 23.43-37.917zm64 37.917v-37.917a56.056 56.056 0 0 1 23.43 37.917z"/><path d="m256 16c-132.945 0-240 157.555-240 288 0 120.223 89.719 192 240 192s240-71.777 240-192c0-130.445-107.055-288-240-288zm0 464c-140.258 0-224-65.793-224-176 0-123.2 99.922-272 224-272s224 148.8 224 272c0 110.207-83.742 176-224 176z"/></svg>