<svg id="Filled" height="512" viewBox="0 0 512 512" width="512" xmlns="http://www.w3.org/2000/svg"><path d="m488 304c0 128.13-103.87 184-232 184s-232-55.87-232-184 103.87-280 232-280 232 151.87 232 280z" fill="#ffc70d"/><path d="m256 456c-122.746 0-223.161-51.321-231.389-168.276-.361 5.455-.611 10.892-.611 16.276 0 128.13 103.87 184 232 184s232-55.87 232-184c0-5.384-.25-10.821-.611-16.276-8.228 116.955-108.643 168.276-231.389 168.276z" fill="#f89f00"/><g fill="#fff"><circle cx="168" cy="216" r="24"/><circle cx="168" cy="216" r="8"/><circle cx="344" cy="216" r="24"/><circle cx="344" cy="216" r="8"/></g><path d="m256 16c-132.945 0-240 157.555-240 288 0 120.223 89.719 192 240 192s240-71.777 240-192c0-130.445-107.055-288-240-288zm0 464c-140.262 0-224-65.793-224-176 0-123.2 99.918-272 224-272s224 148.8 224 272c0 110.207-83.738 176-224 176z"/><path d="m200 192h-64a8 8 0 0 0 0 16h9.474a23.731 23.731 0 0 0 -1.474 8 24 24 0 0 0 48 0 23.731 23.731 0 0 0 -1.474-8h9.474a8 8 0 0 0 0-16zm-24 24a8 8 0 1 1 -8-8 8.011 8.011 0 0 1 8 8z"/><path d="m376 192h-64a8 8 0 0 0 0 16h9.474a23.731 23.731 0 0 0 -1.474 8 24 24 0 0 0 48 0 23.731 23.731 0 0 0 -1.474-8h9.474a8 8 0 0 0 0-16zm-24 24a8 8 0 1 1 -8-8 8.011 8.011 0 0 1 8 8z"/><path d="m280 240h-48a8 8 0 0 0 0 16h48a8 8 0 0 0 0-16z"/></svg>